<?xml version="1.0" encoding="UTF-8"?>
<svg width="199px" height="45px" viewBox="0 0 199 45" version="1.1" xmlns="http://www.w3.org/2000/svg" xmlns:xlink="http://www.w3.org/1999/xlink">
    <!-- Generator: Sketch 43.1 (39012) - http://www.bohemiancoding.com/sketch -->
    <title>civio</title>
    <desc>Created with Sketch.</desc>
    <defs></defs>
    <g id="Page-1" stroke="none" stroke-width="1" fill="none" fill-rule="evenodd">
        <g id="civio" fill-rule="nonzero">
            <path d="M188.3,0 C193.86,0 198.36,4.42 198.36,9.87 C198.36,15.32 193.86,19.74 188.3,19.74 C182.75,19.74 178.24,15.32 178.24,9.87 C178.24,4.42 182.74,0 188.3,0 Z" id="p1" fill="#56FFA9"></path>
            <path d="M178.24,34.4 C178.24,28.94 182.74,24.52 188.3,24.52 C193.86,24.52 198.36,28.94 198.36,34.39 C198.36,39.79 193.86,44.22 188.3,44.22 C182.75,44.22 178.24,39.79 178.24,34.35" id="p2" fill="#FFED6A"></path>
            <path d="M81.075,42.9 L87.25,42.9 L104.2,1.3 L92.2,1.3 L81.0836041,28.5827179 L70,1.3 L58,1.3 L74.9,42.9 L81.075,42.9 Z M36.46,7 C28.12,-1.35 14.6,-1.35 6.26,7 C-2.08,15.33 -2.08,28.87 6.26,37.2 C14.59,45.54 28.12,45.54 36.46,37.2 L28.91,29.65 C24.78,33.82 18.01,33.82 13.81,29.65 C9.61,25.48 9.67,18.72 13.81,14.55 C17.95,10.38 24.78,10.38 28.91,14.55 L36.5,7 L36.46,7 Z M154.6,29.65 C150.43,33.82 143.66,33.82 139.5,29.65 C135.33,25.48 135.33,18.72 139.5,14.55 C143.66,10.38 150.43,10.38 154.6,14.55 C158.76,18.72 158.76,25.48 154.6,29.65 L154.6,29.65 Z M162.15,7 C153.81,-1.34 140.28,-1.34 131.95,7 C123.6,15.33 123.6,28.87 131.95,37.2 C140.28,45.54 153.81,45.54 162.15,37.2 C170.48,28.87 170.48,15.33 162.15,7 L162.15,7 Z M43.2,42.9 L53.95,42.9 L53.95,1.3 L43.2,1.3 L43.2,42.9 Z M108.24,42.9 L119,42.9 L119,1.3 L108.24,1.3 L108.24,42.9 Z" id="Shape" fill="#002A6D"></path>
        </g>
    </g>
</svg>